<?xml version="1.0" standalone="no"?><!DOCTYPE svg PUBLIC "-//W3C//DTD SVG 1.1//EN" "http://www.w3.org/Graphics/SVG/1.1/DTD/svg11.dtd"><svg t="1560821063403" class="icon" style="" viewBox="0 0 1024 1024" version="1.1" xmlns="http://www.w3.org/2000/svg" p-id="1636" xmlns:xlink="http://www.w3.org/1999/xlink" width="200" height="200"><defs><style type="text/css"></style></defs><path d="M884.689763 480.710004H146.883612" fill="#515151" p-id="1637"></path><path d="M146.883612 356.347217H884.689763v19.132736H146.883612z" fill="#515151" p-id="1638"></path><path d="M146.883612 375.479953H884.689763V394.61269H146.883612z" fill="#515151" p-id="1639"></path><path d="M146.883612 394.61269H884.689763v19.132736H146.883612z" fill="#515151" p-id="1640"></path><path d="M146.883612 413.745426H884.689763v19.132737H146.883612z" fill="#515151" p-id="1641"></path><path d="M146.883612 432.878163H884.689763v19.132736H146.883612z" fill="#515151" p-id="1642"></path><path d="M146.883612 452.010899H884.689763v19.132737H146.883612z" fill="#515151" p-id="1643"></path><path d="M146.883612 471.143636H884.689763v19.132736H146.883612z" fill="#515151" p-id="1644"></path><path d="M146.883612 490.276372H884.689763v19.132737H146.883612z" fill="#515151" p-id="1645"></path><path d="M146.883612 509.409109H884.689763v19.132736H146.883612z" fill="#515151" p-id="1646"></path><path d="M146.883612 528.541845H884.689763v19.132737H146.883612z" fill="#515151" p-id="1647"></path><path d="M146.883612 547.674582H884.689763v19.132736H146.883612zM146.883612 585.940054H884.689763v19.132737H146.883612z" fill="#515151" p-id="1648"></path><path d="M146.883612 566.807318H884.689763v19.132736H146.883612z" fill="#515151" p-id="1649"></path><path d="M158.442974 1024H139.310237V0h745.379526v19.132736H158.442974z" fill="#515151" p-id="1650"></path><path d="M177.57571 1024H158.442974V19.132736H884.689763v19.132737H177.57571z" fill="#515151" p-id="1651"></path><path d="M196.708447 1024H177.57571V38.265473H884.689763v19.132736H196.708447z" fill="#515151" p-id="1652"></path><path d="M215.841183 1024h-19.132736V57.398209H884.689763v19.132737H215.841183z" fill="#515151" p-id="1653"></path><path d="M234.97392 1024h-19.132737V76.530946H884.689763V95.663682H234.97392z" fill="#515151" p-id="1654"></path><path d="M254.106656 1024H234.97392V95.663682h649.715843v19.132737H254.106656z" fill="#515151" p-id="1655"></path><path d="M273.239393 1024h-19.132737V114.796419H884.689763v19.132736H273.239393z" fill="#515151" p-id="1656"></path><path d="M292.372129 1024h-19.132736V133.929155H884.689763v19.132737H292.372129z" fill="#515151" p-id="1657"></path><path d="M311.504866 1024h-19.132737V153.061892H884.689763v19.132736H311.504866z" fill="#515151" p-id="1658"></path><path d="M330.637602 1024h-19.132736V172.194628H884.689763V191.327365H330.637602z" fill="#515151" p-id="1659"></path><path d="M349.770339 1024H330.637602V191.327365h554.052161v19.132736H349.770339z" fill="#515151" p-id="1660"></path><path d="M388.035812 1024h-19.132737V229.592838H884.689763v19.132736H388.035812z" fill="#515151" p-id="1661"></path><path d="M368.903075 1024h-19.132736V210.460101H884.689763v19.132737H368.903075z" fill="#515151" p-id="1662"></path></svg>